ply
format ascii 1.0
comment Created by Blender 2.76 (sub 0) - www.blender.org, source file: ''
element vertex 68
property float x
property float y
property float z
property float nx
property float ny
property float nz
property float s
property float t
element face 34
property list uchar uint vertex_indices
end_header
-0.150000 0.000000 1.000000 -0.838717 0.347408 0.419359 0.000000 0.000000
0.000000 0.000000 1.300000 -0.838717 0.347408 0.419359 1.000000 0.000000
-0.106066 0.106066 1.000000 -0.838717 0.347408 0.419359 1.000000 1.000000
0.000000 0.150000 1.000000 0.347408 0.838717 0.419359 0.000000 0.000000
0.000000 0.000000 1.300000 0.347408 0.838717 0.419359 1.000000 0.000000
0.106066 0.106066 1.000000 0.347408 0.838717 0.419359 1.000000 1.000000
-0.106066 -0.106066 1.000000 -0.838717 -0.347408 0.419359 0.000000 0.000000
0.000000 0.000000 1.300000 -0.838717 -0.347408 0.419359 1.000000 0.000000
-0.150000 0.000000 1.000000 -0.838717 -0.347408 0.419359 1.000000 1.000000
-0.000000 -0.150000 1.000000 -0.347408 -0.838717 0.419359 0.000000 0.000000
0.000000 0.000000 1.300000 -0.347408 -0.838717 0.419359 1.000000 0.000000
-0.106066 -0.106066 1.000000 -0.347408 -0.838717 0.419359 1.000000 1.000000
0.106066 -0.106066 1.000000 0.347408 -0.838717 0.419359 0.000000 0.000000
0.000000 0.000000 1.300000 0.347408 -0.838717 0.419359 1.000000 0.000000
-0.000000 -0.150000 1.000000 0.347408 -0.838717 0.419359 1.000000 1.000000
0.150000 -0.000000 1.000000 0.838717 -0.347408 0.419359 0.000000 0.000000
0.000000 0.000000 1.300000 0.838717 -0.347408 0.419359 1.000000 0.000000
0.106066 -0.106066 1.000000 0.838717 -0.347408 0.419359 1.000000 1.000000
-0.106066 0.106066 1.000000 -0.347408 0.838717 0.419359 0.000000 0.000000
0.000000 0.000000 1.300000 -0.347408 0.838717 0.419359 1.000000 0.000000
0.000000 0.150000 1.000000 -0.347408 0.838717 0.419359 1.000000 1.000000
0.106066 0.106066 1.000000 0.838717 0.347408 0.419359 0.000000 0.000000
0.000000 0.000000 1.300000 0.838717 0.347408 0.419359 1.000000 0.000000
0.150000 -0.000000 1.000000 0.838717 0.347408 0.419359 1.000000 1.000000
0.106066 -0.106066 1.000000 0.000000 -0.000000 -1.000000 0.853553 0.146447
-0.106066 -0.106066 1.000000 0.000000 -0.000000 -1.000000 0.146447 0.146447
0.106066 0.106066 1.000000 0.000000 -0.000000 -1.000000 0.853553 0.853553
0.000000 0.050000 1.000000 0.500000 0.866025 -0.000000 1.000000 0.000000
0.043301 0.025000 1.000000 0.500000 0.866025 -0.000000 1.000000 1.000000
0.043301 0.025000 0.000000 0.500000 0.866025 -0.000000 0.000000 1.000000
0.043301 0.025000 1.000000 1.000000 -0.000000 0.000000 1.000000 0.000000
0.043301 -0.025000 1.000000 1.000000 -0.000000 0.000000 1.000000 1.000000
0.043301 -0.025000 0.000000 1.000000 -0.000000 0.000000 0.000000 1.000000
0.043301 -0.025000 1.000000 0.500000 -0.866025 0.000000 1.000000 0.000000
-0.000000 -0.050000 1.000000 0.500000 -0.866025 0.000000 1.000000 1.000000
-0.000000 -0.050000 0.000000 0.500000 -0.866025 0.000000 0.000000 1.000000
-0.000000 -0.050000 1.000000 -0.500000 -0.866025 0.000000 1.000000 0.000000
-0.043301 -0.025000 1.000000 -0.500000 -0.866025 0.000000 1.000000 1.000000
-0.043301 -0.025000 0.000000 -0.500000 -0.866025 0.000000 0.000000 1.000000
0.000000 0.050000 1.000000 0.000000 -0.000000 1.000000 0.933013 0.750000
-0.043301 -0.025000 1.000000 0.000000 -0.000000 1.000000 0.500000 0.000000
0.043301 -0.025000 1.000000 0.000000 -0.000000 1.000000 0.066987 0.750000
-0.043301 0.025000 1.000000 -0.500000 0.866025 0.000000 1.000000 0.000000
0.000000 0.050000 1.000000 -0.500000 0.866025 0.000000 1.000000 1.000000
0.000000 0.050000 0.000000 -0.500000 0.866025 0.000000 0.000000 1.000000
-0.043301 -0.025000 1.000000 -1.000000 0.000000 0.000000 1.000000 0.000000
-0.043301 0.025000 1.000000 -1.000000 0.000000 0.000000 1.000000 1.000000
-0.043301 0.025000 0.000000 -1.000000 0.000000 0.000000 0.000000 1.000000
0.043301 0.025000 0.000000 0.000000 0.000000 -1.000000 0.933013 0.750000
-0.043301 -0.025000 0.000000 0.000000 0.000000 -1.000000 0.066987 0.250000
-0.043301 0.025000 0.000000 0.000000 0.000000 -1.000000 0.066987 0.750000
-0.106066 0.106066 1.000000 -0.000000 0.000000 -1.000000 0.146447 0.853553
0.000000 0.150000 1.000000 -0.000000 0.000000 -1.000000 0.500000 1.000000
0.150000 -0.000000 1.000000 0.000000 0.000000 -1.000000 1.000000 0.500000
-0.000000 -0.150000 1.000000 0.000000 0.000000 -1.000000 0.500000 0.000000
-0.150000 0.000000 1.000000 0.000000 -0.000000 -1.000000 0.000000 0.500000
0.000000 0.050000 0.000000 0.500000 0.866025 0.000000 0.000000 0.000000
0.043301 0.025000 0.000000 1.000000 -0.000000 0.000000 0.000000 0.000000
0.043301 -0.025000 0.000000 0.500000 -0.866025 0.000000 0.000000 0.000000
-0.000000 -0.050000 0.000000 -0.500000 -0.866025 -0.000000 0.000000 0.000000
0.043301 0.025000 1.000000 0.000000 0.000000 1.000000 0.500000 1.000000
-0.043301 0.025000 1.000000 0.000000 0.000000 1.000000 0.933013 0.250000
-0.000000 -0.050000 1.000000 0.000000 0.000000 1.000000 0.066987 0.250000
-0.043301 0.025000 0.000000 -0.500000 0.866025 0.000000 0.000000 0.000000
-0.043301 -0.025000 0.000000 -1.000000 -0.000000 -0.000000 0.000000 0.000000
0.000000 0.050000 0.000000 -0.000000 0.000000 -1.000000 0.500000 1.000000
0.043301 -0.025000 0.000000 0.000000 0.000000 -1.000000 0.933013 0.250000
-0.000000 -0.050000 0.000000 0.000000 0.000000 -1.000000 0.500000 0.000000
3 0 1 2
3 3 4 5
3 6 7 8
3 9 10 11
3 12 13 14
3 15 16 17
3 18 19 20
3 21 22 23
3 24 25 26
3 27 28 29
3 30 31 32
3 33 34 35
3 36 37 38
3 39 40 41
3 42 43 44
3 45 46 47
3 48 49 50
3 51 52 26
3 26 53 24
3 24 54 25
3 25 55 51
3 51 26 25
3 56 27 29
3 57 30 32
3 58 33 35
3 59 36 38
3 41 60 39
3 39 61 40
3 40 62 41
3 63 42 44
3 64 45 47
3 50 65 48
3 48 66 67
3 67 49 48
